<?xml version="1.0" standalone="no"?>
<!DOCTYPE svg PUBLIC "-//W3C//DTD SVG 20010904//EN"
 "http://www.w3.org/TR/2001/REC-SVG-20010904/DTD/svg10.dtd">
<svg version="1.0" xmlns="http://www.w3.org/2000/svg"
 width="1280.000000pt" height="1280.000000pt" viewBox="0 0 1280.000000 1280.000000"
 preserveAspectRatio="xMidYMid meet">
<metadata>
Created by potrace 1.15, written by Peter Selinger 2001-2017
</metadata>
<g transform="translate(0.000000,1280.000000) scale(0.100000,-0.100000)"
fill="#000000" stroke="none">
<path d="M5755 11381 c-425 -29 -930 -135 -1295 -271 -41 -16 -118 -44 -170
-63 -52 -20 -119 -47 -147 -61 -29 -14 -55 -26 -58 -26 -19 0 -357 -177 -475
-249 -47 -29 -92 -56 -100 -61 -119 -71 -448 -304 -480 -339 -3 -4 -45 -40
-95 -81 -154 -127 -467 -448 -591 -605 -21 -27 -42 -52 -45 -55 -34 -27 -349
-479 -380 -545 -5 -11 -20 -38 -34 -60 -29 -46 -185 -355 -185 -366 0 -4 -15
-40 -34 -81 -38 -83 -109 -256 -137 -338 -52 -146 -91 -270 -114 -353 -14 -51
-32 -114 -39 -142 -83 -297 -143 -914 -130 -1330 11 -350 96 -842 215 -1240
102 -340 310 -799 487 -1075 179 -277 326 -482 464 -645 63 -74 404 -415 474
-473 94 -79 258 -212 298 -242 26 -19 52 -40 59 -46 7 -6 84 -58 172 -115 178
-117 354 -220 460 -269 39 -18 125 -59 193 -91 67 -33 184 -82 260 -110 75
-28 146 -54 157 -59 47 -21 239 -81 350 -110 154 -40 372 -83 550 -109 77 -11
181 -26 230 -33 125 -18 804 -18 935 0 52 8 147 20 210 28 119 16 231 35 335
60 33 7 94 21 135 30 41 9 89 20 105 24 47 13 328 101 350 110 11 4 79 29 150
56 185 68 416 177 645 304 72 40 360 229 450 295 75 55 177 133 190 146 8 8
42 37 75 64 33 28 77 66 99 85 79 70 334 327 407 410 40 47 76 87 79 90 13 13
130 161 166 210 145 197 166 230 267 396 106 176 277 513 327 644 7 19 17 39
22 44 4 6 8 16 8 24 0 8 6 28 14 45 27 64 38 92 57 152 11 33 25 69 30 80 36
80 129 421 154 570 72 421 88 586 88 925 0 146 -3 306 -7 355 -13 163 -35 349
-51 435 -9 47 -21 114 -26 150 -34 223 -170 682 -268 905 -5 11 -30 70 -56
130 -44 102 -142 298 -203 405 -43 77 -126 214 -134 225 -5 6 -43 62 -84 125
-41 63 -79 117 -83 120 -5 3 -17 19 -27 36 -11 17 -31 46 -46 65 -15 19 -55
70 -89 114 -201 257 -493 543 -769 755 -25 19 -50 39 -56 45 -7 5 -22 18 -35
27 -13 9 -44 31 -69 49 -80 58 -324 221 -368 245 -187 105 -243 135 -352 189
-351 174 -815 328 -1190 396 -355 65 -497 79 -840 83 -162 2 -344 1 -405 -3z
m615 -611 c619 -42 1233 -225 1780 -531 90 -50 336 -211 432 -283 187 -139
430 -348 473 -408 6 -7 48 -56 95 -108 185 -205 318 -367 397 -485 210 -314
329 -530 428 -775 25 -63 50 -124 55 -135 22 -49 122 -371 149 -480 36 -145
85 -425 102 -590 17 -160 18 -652 1 -825 -25 -256 -62 -459 -123 -690 -25 -90
-158 -468 -207 -586 -69 -163 -172 -369 -243 -483 -33 -51 -59 -95 -59 -98 0
-8 -152 -231 -184 -270 -8 -10 -47 -58 -86 -107 -215 -271 -496 -544 -785
-762 -88 -66 -353 -242 -400 -266 -16 -8 -57 -30 -90 -48 -66 -36 -273 -140
-279 -140 -3 0 -33 -13 -68 -29 -71 -32 -255 -101 -338 -127 -30 -9 -86 -27
-125 -40 -176 -58 -480 -120 -735 -150 -220 -27 -769 -27 -950 -1 -331 48
-507 83 -735 147 -168 48 -449 161 -670 270 -248 123 -301 152 -369 204 -26
20 -52 36 -56 36 -5 0 -29 14 -52 30 -24 17 -61 43 -83 57 -36 24 -212 160
-225 173 -6 6 -115 97 -150 125 -60 48 -400 396 -445 455 -28 36 -57 74 -67
85 -60 72 -327 474 -383 580 -82 152 -144 283 -202 425 -19 47 -41 99 -48 116
-64 141 -178 573 -210 799 -8 55 -21 143 -29 195 -31 208 -39 334 -33 545 7
226 16 320 61 670 12 97 50 274 77 360 5 17 23 77 40 135 33 114 98 294 135
378 13 29 24 55 24 58 0 3 6 20 14 37 8 18 24 55 36 82 42 96 134 281 172 343
21 34 38 64 38 67 0 5 65 105 142 218 233 343 574 706 883 941 44 33 85 64 90
69 68 56 336 225 520 326 145 80 341 172 435 204 25 9 70 25 100 37 338 129
778 225 1150 249 171 12 436 12 600 1z"/>
<path d="M5775 10154 c-131 -9 -437 -48 -551 -69 -191 -37 -506 -133 -689
-210 -190 -80 -426 -218 -590 -344 -70 -54 -273 -254 -331 -326 -167 -207
-295 -473 -374 -775 -15 -58 -38 -227 -51 -374 -18 -199 7 -496 65 -796 17
-90 64 -277 76 -305 19 -45 18 -66 -3 -85 -11 -11 -25 -20 -29 -20 -12 0 -168
-119 -168 -128 0 -4 -15 -23 -33 -42 -96 -102 -157 -232 -182 -386 -18 -107
-18 -161 -4 -256 22 -148 75 -281 167 -423 99 -152 216 -248 416 -341 27 -12
43 -28 53 -53 76 -183 298 -620 406 -800 31 -52 57 -96 57 -98 0 -2 5 -9 10
-16 6 -7 49 -70 96 -142 48 -71 89 -132 93 -135 4 -3 18 -21 31 -40 28 -39 26
-37 111 -140 176 -213 413 -429 608 -554 95 -61 241 -139 311 -165 30 -12 64
-25 75 -30 101 -44 298 -87 462 -101 227 -20 523 24 720 107 17 7 35 13 41 13
5 0 65 28 133 63 128 66 237 133 324 200 28 21 69 53 92 70 51 39 324 313 378
381 22 27 45 54 50 60 6 6 32 40 58 76 27 36 54 72 61 81 41 51 266 399 266
413 0 3 12 25 27 49 43 68 256 484 294 575 8 19 30 66 50 105 34 69 38 73 95
97 119 50 239 142 339 261 35 41 106 159 134 223 119 264 116 526 -9 764 -72
138 -189 254 -335 332 -33 18 -61 33 -63 35 -2 1 11 61 27 131 50 210 59 256
70 324 65 415 66 425 66 700 0 275 -1 281 -66 610 -23 112 -107 323 -180 450
-56 97 -174 234 -279 325 -101 86 -259 167 -442 224 -131 41 -446 57 -620 31
l-88 -13 -82 84 c-102 105 -110 111 -238 188 -228 137 -571 215 -855 195z
m1015 -1341 c43 -131 149 -358 221 -477 10 -17 23 -40 28 -51 8 -19 162 -249
275 -414 28 -41 56 -81 61 -89 6 -9 13 -21 18 -26 137 -190 337 -522 337 -562
0 -14 -38 -20 -215 -34 -71 -6 -146 -12 -165 -15 -39 -6 -321 -30 -510 -45
-318 -23 -785 -32 -1355 -26 -638 6 -1422 23 -1522 32 -56 5 -63 8 -63 27 1
26 40 148 66 203 45 95 150 222 248 302 66 53 296 182 325 182 6 0 19 4 29 9
9 5 44 20 77 32 33 12 69 26 80 30 11 5 61 20 110 33 50 13 119 33 155 44 36
11 99 28 140 37 41 9 86 21 100 25 14 5 84 23 155 40 72 18 139 36 150 41 11
5 38 13 60 18 159 38 376 119 540 201 266 134 435 280 572 493 24 37 47 66 52
63 4 -3 18 -36 31 -73z m1380 -2382 c74 -12 168 -55 201 -92 30 -33 49 -96 49
-158 0 -45 -18 -141 -30 -156 -4 -5 -11 -21 -15 -35 -20 -65 -123 -192 -167
-206 -10 -3 -18 -9 -18 -13 0 -13 -79 -32 -160 -39 -49 -5 -75 -12 -81 -22
-16 -31 -49 -107 -49 -112 0 -4 -15 -39 -33 -80 -19 -40 -49 -107 -68 -148
-49 -109 -201 -407 -248 -489 -23 -38 -41 -72 -41 -75 0 -9 -151 -253 -205
-331 -128 -186 -218 -299 -334 -421 -108 -114 -249 -240 -300 -268 -9 -5 -18
-12 -21 -16 -13 -19 -207 -121 -291 -155 -185 -73 -417 -104 -569 -75 -25 4
-71 13 -103 19 -62 11 -112 25 -164 48 -17 7 -34 13 -38 13 -13 0 -182 88
-241 126 -120 76 -317 256 -454 415 -147 171 -362 493 -499 749 -112 207 -267
530 -336 699 -24 57 -49 108 -57 112 -7 5 -33 9 -58 9 -74 0 -159 27 -213 68
-120 91 -198 271 -183 420 11 101 35 134 130 178 43 19 149 44 192 44 11 0 31
-45 146 -325 101 -248 173 -405 252 -550 6 -11 38 -58 70 -105 196 -281 379
-430 588 -480 149 -36 328 -22 478 37 150 59 243 130 427 325 102 107 177 130
303 92 89 -26 147 -69 329 -243 166 -158 316 -225 501 -225 129 1 236 30 385
104 144 72 213 124 290 220 129 160 292 515 380 830 24 86 84 279 96 309 11
25 18 26 159 2z m-3205 -124 c22 0 101 4 175 8 144 8 173 3 211 -41 30 -35 43
-107 29 -166 -16 -74 -42 -148 -52 -148 -4 0 -8 -7 -8 -15 0 -24 -111 -128
-169 -158 -157 -81 -350 -49 -482 80 -71 69 -129 203 -129 297 0 46 26 106 58
134 27 23 29 24 177 16 83 -3 168 -7 190 -7z m1935 0 c19 0 96 3 171 8 132 8
137 7 178 -15 34 -20 44 -32 58 -77 15 -47 15 -61 3 -121 -27 -142 -110 -254
-232 -315 -122 -61 -246 -61 -367 1 -59 29 -171 132 -171 157 0 8 -4 15 -9 15
-15 0 -61 153 -61 203 0 49 32 118 64 139 29 18 41 19 181 12 83 -4 166 -7
185 -7z"/>
<path d="M4058 2000 c-114 -29 -201 -145 -247 -330 -24 -97 -41 -206 -41 -266
0 -36 -4 -42 -32 -55 -49 -21 -80 -73 -76 -129 3 -48 4 -48 65 -35 40 9 37 16
52 -150 14 -153 40 -288 76 -393 61 -183 111 -227 245 -219 73 5 167 33 206
61 19 14 19 15 -2 38 -86 95 -140 285 -150 526 l-7 152 31 0 c45 0 83 -17 89
-40 3 -11 7 -20 10 -20 19 0 43 26 57 61 21 51 13 99 -22 134 -25 26 -36 29
-106 39 -21 3 -41 7 -43 10 -7 7 27 145 43 178 8 15 23 30 35 33 29 10 73 -24
79 -60 3 -16 10 -28 15 -28 30 4 46 209 24 312 -13 61 -56 122 -109 156 -46
29 -132 40 -192 25z"/>
<path d="M8181 2001 c-54 -14 -84 -44 -110 -107 -18 -45 -49 -198 -51 -254 0
-3 -42 -5 -93 -5 -92 0 -95 -1 -150 -38 -88 -58 -165 -178 -202 -312 -25 -93
-31 -315 -10 -394 34 -132 117 -251 213 -307 40 -24 59 -28 122 -28 91 -1 135
19 200 90 40 44 45 46 54 28 6 -10 29 -37 52 -60 74 -73 170 -78 302 -13 66
32 76 48 40 64 -30 13 -83 120 -107 215 -99 393 -93 909 12 1044 33 42 31 47
-33 67 -47 14 -197 20 -239 10z m-160 -663 c0 -52 5 -104 20 -221 6 -48 8 -94
5 -102 -8 -23 -72 -19 -96 5 -30 30 -40 63 -47 149 -9 124 27 211 88 211 27 0
29 -2 30 -42z"/>
<path d="M6984 1589 c-68 -21 -84 -40 -50 -59 56 -30 76 -118 76 -342 0 -202
-20 -298 -62 -298 -29 0 -40 45 -33 135 11 131 8 351 -5 406 -16 66 -68 122
-130 139 -87 23 -202 -10 -280 -81 l-34 -32 34 -11 c25 -8 42 -23 60 -56 24
-43 25 -52 24 -200 0 -85 -6 -196 -13 -247 -27 -202 -13 -299 53 -368 95 -100
251 -74 345 56 l30 41 16 -39 c32 -77 90 -117 183 -129 148 -18 251 91 271
286 5 48 8 96 6 107 -2 10 -7 40 -10 67 l-7 49 -19 -32 c-12 -21 -27 -31 -43
-31 -46 0 -49 16 -50 243 -2 241 -13 291 -76 358 -58 61 -168 76 -286 38z"/>
<path d="M6073 1560 c-17 -6 -43 -24 -58 -42 -15 -17 -30 -27 -33 -22 -23 33
-75 55 -130 56 -75 1 -132 -26 -201 -96 -51 -52 -151 -208 -151 -236 0 -9 -4
-20 -9 -25 -4 -6 -18 -49 -30 -97 -54 -216 -6 -447 115 -555 80 -71 185 -92
269 -54 43 19 109 85 120 120 9 31 22 26 44 -18 59 -115 162 -166 248 -123 88
45 137 152 149 327 6 88 -9 225 -25 225 -3 0 -12 -14 -20 -30 -17 -40 -54 -64
-85 -56 -58 14 -95 200 -76 380 12 102 30 163 62 205 18 23 18 25 1 35 -24 13
-152 17 -190 6z m-139 -279 c3 -4 1 -23 -4 -42 -6 -19 -12 -101 -15 -184 -6
-154 -9 -165 -50 -165 -59 0 -89 63 -88 185 2 92 20 145 65 187 29 27 81 38
92 19z"/>
<path d="M4594 1526 c-51 -15 -123 -52 -136 -70 -4 -6 6 -18 22 -27 17 -11 31
-31 36 -51 12 -47 7 -259 -10 -423 -22 -211 -7 -347 48 -428 33 -48 125 -91
192 -90 88 2 151 29 211 89 66 66 68 84 11 84 -48 1 -65 11 -94 55 -15 23 -19
46 -18 112 2 117 24 333 37 363 11 25 11 25 14 -10 14 -159 46 -233 121 -277
40 -24 58 -28 123 -28 67 0 80 3 117 29 23 16 51 43 62 61 21 34 27 60 11 51
-17 -11 -68 15 -82 41 -10 19 -13 49 -9 107 2 45 5 129 5 187 0 98 -2 108 -27
146 -30 46 -83 74 -149 81 -36 3 -60 -2 -107 -23 -34 -15 -69 -36 -78 -46 -23
-25 -38 -24 -53 5 -32 59 -151 89 -247 62z"/>
</g>
</svg>
